<svg xmlns="http://www.w3.org/2000/svg" xmlns:xlink="http://www.w3.org/1999/xlink" width="246" height="246" viewBox="0 0 246 246" fill="none"><g opacity="0.2"><path d="M125.425 37.0466C121.059 37.0466 116.887 38.7686 113.807 41.8488C110.727 44.929 109.005 49.1005 109.005 53.466C109.005 57.8317 110.727 62.0032 113.807 65.0834C116.887 68.1635 121.059 69.8856 125.425 69.8856C129.79 69.8856 133.961 68.1635 137.042 65.0834C140.122 62.0032 141.844 57.8317 141.844 53.466C141.844 49.1005 140.122 44.929 137.042 41.8488C133.961 38.7686 129.79 37.0466 125.425 37.0466Z"   fill="#17181C" ></path></g><g opacity="0.2"><path d="M192.533 110.267C189.162 110.267 185.912 111.601 183.535 114.002C181.158 116.379 179.801 119.629 179.801 123C179.801 126.371 181.134 129.621 183.535 131.998C185.912 134.374 189.162 135.733 192.533 135.733C195.904 135.733 199.154 134.399 201.531 131.998C203.908 129.621 205.266 126.371 205.266 123C205.266 119.629 203.932 116.379 201.531 114.002C199.154 111.625 195.904 110.267 192.533 110.267Z"   fill="#17181C" ></path></g><g opacity="0.2"><path d="M125.425 176.091C121.059 176.091 116.887 177.812 113.807 180.893C110.727 183.973 109.005 188.144 109.005 192.51C109.005 196.876 110.727 201.047 113.807 204.127C116.887 207.207 121.059 208.929 125.425 208.929C129.79 208.929 133.961 207.207 137.042 204.127C140.122 201.047 141.844 196.876 141.844 192.51C141.844 188.144 140.122 183.973 137.042 180.893C133.961 177.812 129.79 176.091 125.425 176.091Z"   fill="#17181C" ></path></g><g opacity="0.2"><path d="M64.9881 111.48C68.044 114.536 69.7659 118.683 69.7659 123C69.7659 127.317 68.044 131.465 64.9881 134.521C61.9321 137.576 57.8091 139.298 53.492 139.298C49.175 139.298 45.0276 137.576 41.9718 134.521C38.9158 131.465 37.1938 127.317 37.1938 123C37.1938 118.683 38.9158 114.536 41.9718 111.48C45.0276 108.424 49.175 106.726 53.492 106.726C57.8091 106.726 61.9321 108.424 64.9881 111.48Z"   fill="#17181C" ></path></g><path d="M53.4659 78.9319C67.5303 78.9319 78.9319 67.5303 78.9319 53.4659C78.9319 39.4015 67.5303 28 53.4659 28C39.4015 28 28 39.4015 28 53.4659C28 67.5303 39.4015 78.9319 53.4659 78.9319Z"   fill="#17181C" ></path><path d="M192.534 218C206.598 218 218 206.598 218 192.534C218 178.47 206.598 167.069 192.534 167.069C178.469 167.069 167.067 178.47 167.067 192.534C167.067 206.598 178.469 218 192.534 218Z"   fill="#17181C" ></path><path d="M218 53.4659C218 39.399 206.601 28 192.534 28C178.468 28 167.675 38.8412 167.117 52.3988C167.117 52.2048 167.117 52.0107 167.117 51.8409C167.092 52.3745 167.069 52.9081 167.069 53.4659C167.069 53.6842 167.069 53.8782 167.069 54.0965C167.069 54.0965 167.069 54.0965 167.069 54.0723C166.025 74.5905 143.276 91.4707 122.515 91.4707C122.321 91.4707 122.2 91.4707 122.127 91.5193C105.125 91.9801 91.4707 105.877 91.4707 123C91.4707 123.898 91.5435 124.771 91.592 125.619L91.4465 125.619C91.4951 126.929 91.398 127.851 91.398 129.063C91.398 150.237 73.7659 166.632 52.7141 167.069C52.7141 167.069 52.7141 167.069 52.7141 167.092C39.011 167.505 28 178.71 28 192.534C28 206.359 39.399 218 53.4659 218C67.5328 218 78.6408 206.868 78.9076 193.044C79.5139 172.137 97.1945 154.53 118.246 154.53C118.925 154.53 121.836 154.505 122.491 154.53C122.66 154.53 122.806 154.53 122.976 154.53C140.39 154.53 154.505 140.413 154.505 123C154.505 122.782 154.481 122.563 154.481 122.345L154.505 122.345C154.505 120.114 154.335 118.974 154.335 117.761C154.335 96.3214 171.773 79.3199 193.334 78.9076C207.038 78.471 218 67.2661 218 53.4902L218 53.4659ZM167.092 54.1207C167.092 54.1207 167.092 54.145 167.092 54.1693C167.092 54.1693 167.092 54.145 167.092 54.1207Z"   fill="#17181C" ></path><path   transform="translate(3, 3)" stroke="url(#linear_border_26_2_0)" stroke-width="6"    d="M0 220L0 20C0 8.9543 8.9543 0 20 0L220 0C231.046 0 240 8.9543 240 20L240 220C240 231.046 231.046 240 220 240L20 240C8.9543 240 0 231.046 0 220Z"></path><defs><linearGradient id="linear_border_26_2_0" x1="0" y1="0" x2="240" y2="240" gradientUnits="userSpaceOnUse"><stop offset="0" stop-color="#2FA04A"  /><stop offset="0.372" stop-color="#3683F2"  /><stop offset="0.7417" stop-color="#EB4739"  /><stop offset="1" stop-color="#FABB0F"  /></linearGradient></defs></svg>